<svg width="302" height="81" viewBox="0 0 302 81" fill="none" xmlns="http://www.w3.org/2000/svg">
<path d="M48.8125 5.875H79.4277V13.4629H57.7773V23.3945H76.7324V30.8945H57.7773V49H48.8125V5.875ZM93.4023 13.2578H84.9355V5.55273H93.4023V13.2578ZM84.9355 17.0664H93.4023V49H84.9355V17.0664ZM119.213 16.3047C122.514 16.3047 125.209 17.1738 127.299 18.9121C129.408 20.6309 130.463 23.4922 130.463 27.4961V49H121.908V29.5762C121.908 27.8965 121.684 26.6074 121.234 25.709C120.414 24.0684 118.852 23.248 116.547 23.248C113.715 23.248 111.771 24.4492 110.717 26.8516C110.17 28.1211 109.896 29.7422 109.896 31.7148V49H101.576V17.125H109.633V21.7832C110.707 20.1426 111.723 18.9609 112.68 18.2383C114.398 16.9492 116.576 16.3047 119.213 16.3047ZM134.916 23.3066V17.3594H139.369V8.45312H147.631V17.3594H152.816V23.3066H147.631V40.1816C147.631 41.4902 147.797 42.3105 148.129 42.6426C148.461 42.9551 149.477 43.1113 151.176 43.1113C151.43 43.1113 151.693 43.1113 151.967 43.1113C152.26 43.0918 152.543 43.0723 152.816 43.0527V49.293L148.861 49.4395C144.916 49.5762 142.221 48.8926 140.775 47.3887C139.838 46.4316 139.369 44.957 139.369 42.9648V23.3066H134.916ZM170.775 23.1016C168.842 23.1016 167.338 23.707 166.264 24.918C165.209 26.1289 164.545 27.7695 164.271 29.8398H177.25C177.113 27.6328 176.439 25.9629 175.229 24.8301C174.037 23.6777 172.553 23.1016 170.775 23.1016ZM170.775 16.2168C173.432 16.2168 175.824 16.7148 177.953 17.7109C180.082 18.707 181.84 20.2793 183.227 22.4277C184.477 24.3223 185.287 26.5195 185.658 29.0195C185.873 30.4844 185.961 32.5938 185.922 35.3477H164.066C164.184 38.5508 165.189 40.7969 167.084 42.0859C168.236 42.8867 169.623 43.2871 171.244 43.2871C172.963 43.2871 174.359 42.7988 175.434 41.8223C176.02 41.2949 176.537 40.5625 176.986 39.625H185.512C185.297 41.5195 184.311 43.4434 182.553 45.3965C179.818 48.502 175.99 50.0547 171.068 50.0547C167.006 50.0547 163.422 48.7461 160.316 46.1289C157.211 43.5117 155.658 39.2539 155.658 33.3555C155.658 27.8281 157.055 23.5898 159.848 20.6406C162.66 17.6914 166.303 16.2168 170.775 16.2168ZM210.648 28.5215C210.492 27.3301 210.092 26.2559 209.447 25.2988C208.51 24.0098 207.055 23.3652 205.082 23.3652C202.27 23.3652 200.346 24.7617 199.311 27.5547C198.764 29.0391 198.49 31.0117 198.49 33.4727C198.49 35.8164 198.764 37.7012 199.311 39.127C200.307 41.7832 202.182 43.1113 204.936 43.1113C206.889 43.1113 208.275 42.584 209.096 41.5293C209.916 40.4746 210.414 39.1074 210.59 37.4277H219.115C218.92 39.9668 218.002 42.3691 216.361 44.6348C213.744 48.2871 209.867 50.1133 204.73 50.1133C199.594 50.1133 195.814 48.5898 193.393 45.543C190.971 42.4961 189.76 38.541 189.76 33.6777C189.76 28.1895 191.098 23.9219 193.773 20.875C196.449 17.8281 200.141 16.3047 204.848 16.3047C208.852 16.3047 212.123 17.2031 214.662 19C217.221 20.7969 218.734 23.9707 219.203 28.5215H210.648ZM242.582 16.2461C244.555 16.2461 246.342 16.5879 247.943 17.2715C249.564 17.9551 250.893 19 251.928 20.4062C252.807 21.5977 253.344 22.8281 253.539 24.0977C253.734 25.3477 253.832 27.3984 253.832 30.25V49H245.307V29.5762C245.307 27.8574 245.014 26.4707 244.428 25.416C243.666 23.9316 242.221 23.1895 240.092 23.1895C237.885 23.1895 236.205 23.9316 235.053 25.416C233.92 26.8809 233.354 28.9805 233.354 31.7148V49H225.033V5.96289H233.354V21.2266C234.564 19.3711 235.961 18.082 237.543 17.3594C239.145 16.6172 240.824 16.2461 242.582 16.2461Z" fill="url(#paint0_linear_10_160)"/>
<path d="M45.8984 73.1924H48.4551L47.1973 69.2275L45.8984 73.1924ZM46.0283 66.9238H48.4072L51.9756 77H49.6924L49.043 74.9287H45.3311L44.6338 77H42.4326L46.0283 66.9238ZM58.2373 73.2744C58.2373 72.7002 58.1051 72.1921 57.8408 71.75C57.5811 71.3079 57.1572 71.0869 56.5693 71.0869C55.863 71.0869 55.3776 71.4219 55.1133 72.0918C54.9766 72.4473 54.9082 72.8984 54.9082 73.4453C54.9082 74.3112 55.1383 74.9196 55.5986 75.2705C55.8721 75.4756 56.1956 75.5781 56.5693 75.5781C57.1117 75.5781 57.5241 75.3685 57.8066 74.9492C58.0938 74.5299 58.2373 73.9717 58.2373 73.2744ZM57.1299 69.3848C58.0003 69.3848 58.7363 69.7061 59.3379 70.3486C59.944 70.9912 60.2471 71.9346 60.2471 73.1787C60.2471 74.4912 59.9508 75.4915 59.3584 76.1797C58.7705 76.8678 58.0117 77.2119 57.082 77.2119C56.4896 77.2119 55.9974 77.0638 55.6055 76.7676C55.3913 76.6035 55.1816 76.3643 54.9766 76.0498V79.9326H53.0488V69.5488H54.915V70.6494C55.1247 70.3258 55.348 70.0706 55.585 69.8838C56.0179 69.5511 56.5329 69.3848 57.1299 69.3848ZM63.6514 77H61.7031V66.9238H63.6514V77ZM67.5615 68.6602H65.5859V66.8623H67.5615V68.6602ZM65.5859 69.5488H67.5615V77H65.5859V69.5488ZM73.9053 72.2217C73.8688 71.9437 73.7754 71.693 73.625 71.4697C73.4062 71.1689 73.0667 71.0186 72.6064 71.0186C71.9502 71.0186 71.5013 71.3444 71.2598 71.9961C71.1322 72.3424 71.0684 72.8027 71.0684 73.377C71.0684 73.9238 71.1322 74.3636 71.2598 74.6963C71.4922 75.3161 71.9297 75.626 72.5723 75.626C73.028 75.626 73.3516 75.5029 73.543 75.2568C73.7344 75.0107 73.8506 74.6917 73.8916 74.2998H75.8809C75.8353 74.8923 75.6211 75.4528 75.2383 75.9814C74.6276 76.8337 73.723 77.2598 72.5244 77.2598C71.3258 77.2598 70.444 76.9043 69.8789 76.1934C69.3138 75.4824 69.0312 74.5596 69.0312 73.4248C69.0312 72.1442 69.3434 71.1484 69.9678 70.4375C70.5921 69.7266 71.4535 69.3711 72.5518 69.3711C73.486 69.3711 74.2493 69.5807 74.8418 70C75.4388 70.4193 75.792 71.1598 75.9014 72.2217H73.9053ZM81.3564 73.377C81.2334 73.4544 81.1081 73.5182 80.9805 73.5684C80.8574 73.6139 80.6865 73.6572 80.4678 73.6982L80.0303 73.7803C79.6201 73.8532 79.3262 73.9421 79.1484 74.0469C78.8477 74.2246 78.6973 74.5003 78.6973 74.874C78.6973 75.2067 78.7884 75.4482 78.9707 75.5986C79.1576 75.7445 79.3831 75.8174 79.6475 75.8174C80.0667 75.8174 80.4518 75.6943 80.8027 75.4482C81.1582 75.2021 81.3428 74.7533 81.3564 74.1016V73.377ZM80.1738 72.4678C80.5339 72.4222 80.7913 72.3652 80.9463 72.2969C81.2243 72.1784 81.3633 71.9938 81.3633 71.7432C81.3633 71.4378 81.2562 71.2282 81.042 71.1143C80.8324 70.9958 80.5225 70.9365 80.1123 70.9365C79.652 70.9365 79.3262 71.0505 79.1348 71.2783C78.998 71.4469 78.9069 71.6748 78.8613 71.9619H76.9814C77.0225 71.3102 77.2048 70.7747 77.5283 70.3555C78.0433 69.6992 78.9274 69.3711 80.1807 69.3711C80.9964 69.3711 81.721 69.5329 82.3545 69.8564C82.988 70.18 83.3047 70.7907 83.3047 71.6885V75.1064C83.3047 75.3434 83.3092 75.6305 83.3184 75.9678C83.332 76.223 83.3708 76.3962 83.4346 76.4873C83.4984 76.5785 83.5941 76.6536 83.7217 76.7129V77H81.6025C81.5433 76.8496 81.5023 76.7083 81.4795 76.5762C81.4567 76.444 81.4385 76.2936 81.4248 76.125C81.1559 76.4167 80.846 76.665 80.4951 76.8701C80.0758 77.1117 79.6019 77.2324 79.0732 77.2324C78.3988 77.2324 77.8405 77.041 77.3984 76.6582C76.9609 76.2708 76.7422 75.724 76.7422 75.0176C76.7422 74.1016 77.0954 73.4385 77.8018 73.0283C78.1891 72.805 78.7588 72.6455 79.5107 72.5498L80.1738 72.4678ZM89.4912 72.2217C89.4548 71.9437 89.3613 71.693 89.2109 71.4697C88.9922 71.1689 88.6527 71.0186 88.1924 71.0186C87.5361 71.0186 87.0872 71.3444 86.8457 71.9961C86.7181 72.3424 86.6543 72.8027 86.6543 73.377C86.6543 73.9238 86.7181 74.3636 86.8457 74.6963C87.0781 75.3161 87.5156 75.626 88.1582 75.626C88.6139 75.626 88.9375 75.5029 89.1289 75.2568C89.3203 75.0107 89.4365 74.6917 89.4775 74.2998H91.4668C91.4212 74.8923 91.207 75.4528 90.8242 75.9814C90.2135 76.8337 89.3796 77.2598 88.3223 77.2598L87.8916 77.8955C88.042 77.8636 88.1491 77.8408 88.2129 77.8271C88.2767 77.818 88.3451 77.8135 88.418 77.8135C88.7871 77.8135 89.0811 77.9023 89.2998 78.0801C89.5186 78.2624 89.6279 78.5221 89.6279 78.8594C89.6279 79.2786 89.457 79.609 89.1152 79.8506C88.7734 80.0967 88.3337 80.2197 87.7959 80.2197C87.5635 80.2197 87.2832 80.1719 86.9551 80.0762C86.8047 80.0306 86.5928 79.9577 86.3193 79.8574L86.5791 79.2695C86.8389 79.347 87.0166 79.3971 87.1123 79.4199C87.3311 79.4746 87.5088 79.502 87.6455 79.502C87.9189 79.502 88.1149 79.4427 88.2334 79.3242C88.3519 79.2103 88.4111 79.0895 88.4111 78.9619C88.4111 78.7705 88.3451 78.6361 88.2129 78.5586C88.0807 78.4811 87.9395 78.4424 87.7891 78.4424C87.7025 78.4424 87.6136 78.4515 87.5225 78.4697C87.4313 78.4925 87.3288 78.5221 87.2148 78.5586L86.9209 78.2852L87.5977 77.2598C86.7409 77.2598 86.0299 76.9043 85.4648 76.1934C84.8997 75.4824 84.6172 74.5596 84.6172 73.4248C84.6172 72.1442 84.9294 71.1484 85.5537 70.4375C86.1781 69.7266 87.0394 69.3711 88.1377 69.3711C89.0719 69.3711 89.8353 69.5807 90.4277 70C91.0247 70.4193 91.3779 71.1598 91.4873 72.2217H89.4912ZM96.9424 73.377C96.8193 73.4544 96.694 73.5182 96.5664 73.5684C96.4434 73.6139 96.2725 73.6572 96.0537 73.6982L95.6162 73.7803C95.2061 73.8532 94.9121 73.9421 94.7344 74.0469C94.4336 74.2246 94.2832 74.5003 94.2832 74.874C94.2832 75.2067 94.3743 75.4482 94.5566 75.5986C94.7435 75.7445 94.9691 75.8174 95.2334 75.8174C95.6527 75.8174 96.0378 75.6943 96.3887 75.4482C96.7441 75.2021 96.9287 74.7533 96.9424 74.1016V73.377ZM95.7598 72.4678C96.1198 72.4222 96.3773 72.3652 96.5322 72.2969C96.8102 72.1784 96.9492 71.9938 96.9492 71.7432C96.9492 71.4378 96.8421 71.2282 96.6279 71.1143C96.4183 70.9958 96.1084 70.9365 95.6982 70.9365C95.238 70.9365 94.9121 71.0505 94.7207 71.2783C94.584 71.4469 94.4928 71.6748 94.4473 71.9619H92.5674C92.6084 71.3102 92.7907 70.7747 93.1143 70.3555C93.6292 69.6992 94.5133 69.3711 95.7666 69.3711C96.5824 69.3711 97.307 69.5329 97.9404 69.8564C98.5739 70.18 98.8906 70.7907 98.8906 71.6885V75.1064C98.8906 75.3434 98.8952 75.6305 98.9043 75.9678C98.918 76.223 98.9567 76.3962 99.0205 76.4873C99.0843 76.5785 99.18 76.6536 99.3076 76.7129V77H97.1885C97.1292 76.8496 97.0882 76.7083 97.0654 76.5762C97.0426 76.444 97.0244 76.2936 97.0107 76.125C96.7419 76.4167 96.432 76.665 96.0811 76.8701C95.6618 77.1117 95.1878 77.2324 94.6592 77.2324C93.9847 77.2324 93.4264 77.041 92.9844 76.6582C92.5469 76.2708 92.3281 75.724 92.3281 75.0176C92.3281 74.1016 92.6813 73.4385 93.3877 73.0283C93.7751 72.805 94.3447 72.6455 95.0967 72.5498L95.7598 72.4678ZM94.9805 66.7324C95.1035 66.7324 95.2243 66.7461 95.3428 66.7734C95.4613 66.8008 95.5615 66.8304 95.6436 66.8623L96.2861 67.1016C96.4775 67.1654 96.6029 67.2064 96.6621 67.2246C96.7214 67.2428 96.7874 67.252 96.8604 67.252C97.0791 67.252 97.2318 67.195 97.3184 67.0811C97.4095 66.9626 97.4756 66.8236 97.5166 66.6641H98.4258C98.3438 67.1426 98.1797 67.5436 97.9336 67.8672C97.6921 68.1908 97.3366 68.3525 96.8672 68.3525C96.7259 68.3525 96.5254 68.3184 96.2656 68.25C96.1152 68.2135 95.9717 68.1725 95.835 68.127L95.2812 67.9424C95.2038 67.915 95.1286 67.8968 95.0557 67.8877C94.9827 67.874 94.9098 67.8672 94.8369 67.8672C94.6637 67.8672 94.5225 67.9173 94.4131 68.0176C94.3037 68.1224 94.2262 68.266 94.1807 68.4482H93.292C93.3923 67.9788 93.5221 67.6234 93.6816 67.3818C93.9733 66.9489 94.4062 66.7324 94.9805 66.7324ZM103.97 75.626C104.539 75.626 104.977 75.4232 105.282 75.0176C105.588 74.612 105.74 74.0355 105.74 73.2881C105.74 72.5407 105.588 71.9665 105.282 71.5654C104.977 71.1598 104.539 70.957 103.97 70.957C103.4 70.957 102.96 71.1598 102.65 71.5654C102.345 71.9665 102.192 72.5407 102.192 73.2881C102.192 74.0355 102.345 74.612 102.65 75.0176C102.96 75.4232 103.4 75.626 103.97 75.626ZM107.784 73.2881C107.784 74.3818 107.47 75.3184 106.841 76.0977C106.212 76.8724 105.257 77.2598 103.977 77.2598C102.696 77.2598 101.741 76.8724 101.112 76.0977C100.483 75.3184 100.169 74.3818 100.169 73.2881C100.169 72.2126 100.483 71.2806 101.112 70.4922C101.741 69.7038 102.696 69.3096 103.977 69.3096C105.257 69.3096 106.212 69.7038 106.841 70.4922C107.47 71.2806 107.784 72.2126 107.784 73.2881ZM118.216 73.2744C118.216 72.7002 118.084 72.1921 117.819 71.75C117.56 71.3079 117.136 71.0869 116.548 71.0869C115.841 71.0869 115.356 71.4219 115.092 72.0918C114.955 72.4473 114.887 72.8984 114.887 73.4453C114.887 74.3112 115.117 74.9196 115.577 75.2705C115.851 75.4756 116.174 75.5781 116.548 75.5781C117.09 75.5781 117.503 75.3685 117.785 74.9492C118.072 74.5299 118.216 73.9717 118.216 73.2744ZM117.108 69.3848C117.979 69.3848 118.715 69.7061 119.316 70.3486C119.923 70.9912 120.226 71.9346 120.226 73.1787C120.226 74.4912 119.929 75.4915 119.337 76.1797C118.749 76.8678 117.99 77.2119 117.061 77.2119C116.468 77.2119 115.976 77.0638 115.584 76.7676C115.37 76.6035 115.16 76.3643 114.955 76.0498V79.9326H113.027V69.5488H114.894V70.6494C115.103 70.3258 115.326 70.0706 115.563 69.8838C115.996 69.5511 116.511 69.3848 117.108 69.3848ZM125.749 73.377C125.626 73.4544 125.501 73.5182 125.373 73.5684C125.25 73.6139 125.079 73.6572 124.86 73.6982L124.423 73.7803C124.013 73.8532 123.719 73.9421 123.541 74.0469C123.24 74.2246 123.09 74.5003 123.09 74.874C123.09 75.2067 123.181 75.4482 123.363 75.5986C123.55 75.7445 123.776 75.8174 124.04 75.8174C124.459 75.8174 124.844 75.6943 125.195 75.4482C125.551 75.2021 125.735 74.7533 125.749 74.1016V73.377ZM124.566 72.4678C124.926 72.4222 125.184 72.3652 125.339 72.2969C125.617 72.1784 125.756 71.9938 125.756 71.7432C125.756 71.4378 125.649 71.2282 125.435 71.1143C125.225 70.9958 124.915 70.9365 124.505 70.9365C124.045 70.9365 123.719 71.0505 123.527 71.2783C123.391 71.4469 123.299 71.6748 123.254 71.9619H121.374C121.415 71.3102 121.597 70.7747 121.921 70.3555C122.436 69.6992 123.32 69.3711 124.573 69.3711C125.389 69.3711 126.114 69.5329 126.747 69.8564C127.381 70.18 127.697 70.7907 127.697 71.6885V75.1064C127.697 75.3434 127.702 75.6305 127.711 75.9678C127.725 76.223 127.763 76.3962 127.827 76.4873C127.891 76.5785 127.987 76.6536 128.114 76.7129V77H125.995C125.936 76.8496 125.895 76.7083 125.872 76.5762C125.849 76.444 125.831 76.2936 125.817 76.125C125.549 76.4167 125.239 76.665 124.888 76.8701C124.468 77.1117 123.994 77.2324 123.466 77.2324C122.791 77.2324 122.233 77.041 121.791 76.6582C121.354 76.2708 121.135 75.724 121.135 75.0176C121.135 74.1016 121.488 73.4385 122.194 73.0283C122.582 72.805 123.151 72.6455 123.903 72.5498L124.566 72.4678ZM133.48 69.3711C133.517 69.3711 133.547 69.3734 133.569 69.3779C133.597 69.3779 133.654 69.3802 133.74 69.3848V71.3809C133.617 71.3672 133.508 71.3581 133.412 71.3535C133.316 71.349 133.239 71.3467 133.18 71.3467C132.396 71.3467 131.869 71.6019 131.601 72.1123C131.45 72.3994 131.375 72.8415 131.375 73.4385V77H129.413V69.5488H131.272V70.8477C131.573 70.3509 131.835 70.0114 132.059 69.8291C132.423 69.5238 132.897 69.3711 133.48 69.3711ZM138.997 73.377C138.874 73.4544 138.749 73.5182 138.621 73.5684C138.498 73.6139 138.327 73.6572 138.108 73.6982L137.671 73.7803C137.261 73.8532 136.967 73.9421 136.789 74.0469C136.488 74.2246 136.338 74.5003 136.338 74.874C136.338 75.2067 136.429 75.4482 136.611 75.5986C136.798 75.7445 137.024 75.8174 137.288 75.8174C137.707 75.8174 138.092 75.6943 138.443 75.4482C138.799 75.2021 138.983 74.7533 138.997 74.1016V73.377ZM137.814 72.4678C138.174 72.4222 138.432 72.3652 138.587 72.2969C138.865 72.1784 139.004 71.9938 139.004 71.7432C139.004 71.4378 138.897 71.2282 138.683 71.1143C138.473 70.9958 138.163 70.9365 137.753 70.9365C137.293 70.9365 136.967 71.0505 136.775 71.2783C136.639 71.4469 136.548 71.6748 136.502 71.9619H134.622C134.663 71.3102 134.845 70.7747 135.169 70.3555C135.684 69.6992 136.568 69.3711 137.821 69.3711C138.637 69.3711 139.362 69.5329 139.995 69.8564C140.629 70.18 140.945 70.7907 140.945 71.6885V75.1064C140.945 75.3434 140.95 75.6305 140.959 75.9678C140.973 76.223 141.011 76.3962 141.075 76.4873C141.139 76.5785 141.235 76.6536 141.362 76.7129V77H139.243C139.184 76.8496 139.143 76.7083 139.12 76.5762C139.097 76.444 139.079 76.2936 139.065 76.125C138.797 76.4167 138.487 76.665 138.136 76.8701C137.716 77.1117 137.243 77.2324 136.714 77.2324C136.039 77.2324 135.481 77.041 135.039 76.6582C134.602 76.2708 134.383 75.724 134.383 75.0176C134.383 74.1016 134.736 73.4385 135.442 73.0283C135.83 72.805 136.399 72.6455 137.151 72.5498L137.814 72.4678ZM149.777 75.4004C150.233 75.4004 150.618 75.2295 150.933 74.8877C151.247 74.5413 151.404 73.9922 151.404 73.2402C151.404 72.5339 151.254 71.9961 150.953 71.627C150.657 71.2578 150.258 71.0732 149.757 71.0732C149.073 71.0732 148.602 71.3945 148.342 72.0371C148.205 72.3789 148.137 72.8005 148.137 73.3018C148.137 73.7347 148.21 74.1198 148.355 74.457C148.62 75.0859 149.094 75.4004 149.777 75.4004ZM149.292 69.3711C149.666 69.3711 149.992 69.4281 150.27 69.542C150.743 69.738 151.126 70.098 151.418 70.6221V69.5488H153.312V76.6172C153.312 77.5788 153.15 78.3034 152.826 78.791C152.27 79.6296 151.204 80.0488 149.627 80.0488C148.674 80.0488 147.897 79.862 147.296 79.4883C146.694 79.1146 146.362 78.5563 146.298 77.8135H148.417C148.472 78.0413 148.561 78.2054 148.684 78.3057C148.893 78.4834 149.246 78.5723 149.743 78.5723C150.445 78.5723 150.914 78.3376 151.151 77.8682C151.306 77.5674 151.384 77.0615 151.384 76.3506V75.8721C151.197 76.1911 150.996 76.4303 150.782 76.5898C150.395 76.8861 149.891 77.0342 149.271 77.0342C148.314 77.0342 147.549 76.6992 146.975 76.0293C146.405 75.3548 146.12 74.4434 146.12 73.2949C146.12 72.1875 146.396 71.2578 146.947 70.5059C147.499 69.7493 148.28 69.3711 149.292 69.3711ZM158.076 70.957C157.625 70.957 157.274 71.0983 157.023 71.3809C156.777 71.6634 156.622 72.0462 156.559 72.5293H159.587C159.555 72.0143 159.398 71.6247 159.115 71.3604C158.837 71.0915 158.491 70.957 158.076 70.957ZM158.076 69.3506C158.696 69.3506 159.254 69.4668 159.751 69.6992C160.248 69.9316 160.658 70.2985 160.981 70.7998C161.273 71.2419 161.462 71.7546 161.549 72.3379C161.599 72.6797 161.619 73.1719 161.61 73.8145H156.511C156.538 74.5618 156.773 75.0859 157.215 75.3867C157.484 75.5736 157.807 75.667 158.186 75.667C158.587 75.667 158.912 75.5531 159.163 75.3252C159.3 75.2021 159.421 75.0312 159.525 74.8125H161.515C161.465 75.2546 161.234 75.7035 160.824 76.1592C160.186 76.8838 159.293 77.2461 158.145 77.2461C157.197 77.2461 156.36 76.9408 155.636 76.3301C154.911 75.7194 154.549 74.7259 154.549 73.3496C154.549 72.0599 154.875 71.071 155.526 70.3828C156.183 69.6947 157.033 69.3506 158.076 69.3506ZM164.447 74.6211C164.488 74.9674 164.577 75.2135 164.714 75.3594C164.955 75.6191 165.402 75.749 166.054 75.749C166.437 75.749 166.74 75.6921 166.963 75.5781C167.191 75.4642 167.305 75.2933 167.305 75.0654C167.305 74.8467 167.214 74.6803 167.031 74.5664C166.849 74.4525 166.172 74.2565 165.001 73.9785C164.158 73.7689 163.563 73.5068 163.217 73.1924C162.87 72.8825 162.697 72.4359 162.697 71.8525C162.697 71.1644 162.966 70.5742 163.504 70.082C164.046 69.5853 164.807 69.3369 165.787 69.3369C166.717 69.3369 167.473 69.5238 168.057 69.8975C168.645 70.2666 168.982 70.9069 169.068 71.8184H167.12C167.093 71.5677 167.022 71.3695 166.908 71.2236C166.694 70.9593 166.329 70.8271 165.814 70.8271C165.391 70.8271 165.088 70.8932 164.905 71.0254C164.728 71.1576 164.639 71.3125 164.639 71.4902C164.639 71.7135 164.734 71.8753 164.926 71.9756C165.117 72.0804 165.794 72.2604 166.956 72.5156C167.731 72.6979 168.312 72.9736 168.699 73.3428C169.082 73.7165 169.273 74.1836 169.273 74.7441C169.273 75.4824 168.998 76.0863 168.446 76.5557C167.899 77.0205 167.052 77.2529 165.903 77.2529C164.732 77.2529 163.866 77.0068 163.306 76.5146C162.75 76.0179 162.472 75.3867 162.472 74.6211H164.447ZM169.957 71.0049V69.6172H170.996V67.5391H172.924V69.6172H174.134V71.0049H172.924V74.9424C172.924 75.2477 172.963 75.4391 173.04 75.5166C173.118 75.5895 173.354 75.626 173.751 75.626C173.81 75.626 173.872 75.626 173.936 75.626C174.004 75.6214 174.07 75.6169 174.134 75.6123V77.0684L173.211 77.1025C172.29 77.1344 171.661 76.9749 171.324 76.624C171.105 76.4007 170.996 76.0566 170.996 75.5918V71.0049H169.957ZM179.493 73.377C179.37 73.4544 179.245 73.5182 179.117 73.5684C178.994 73.6139 178.823 73.6572 178.604 73.6982L178.167 73.7803C177.757 73.8532 177.463 73.9421 177.285 74.0469C176.984 74.2246 176.834 74.5003 176.834 74.874C176.834 75.2067 176.925 75.4482 177.107 75.5986C177.294 75.7445 177.52 75.8174 177.784 75.8174C178.203 75.8174 178.589 75.6943 178.939 75.4482C179.295 75.2021 179.479 74.7533 179.493 74.1016V73.377ZM178.311 72.4678C178.671 72.4222 178.928 72.3652 179.083 72.2969C179.361 72.1784 179.5 71.9938 179.5 71.7432C179.5 71.4378 179.393 71.2282 179.179 71.1143C178.969 70.9958 178.659 70.9365 178.249 70.9365C177.789 70.9365 177.463 71.0505 177.271 71.2783C177.135 71.4469 177.044 71.6748 176.998 71.9619H175.118C175.159 71.3102 175.341 70.7747 175.665 70.3555C176.18 69.6992 177.064 69.3711 178.317 69.3711C179.133 69.3711 179.858 69.5329 180.491 69.8564C181.125 70.18 181.441 70.7907 181.441 71.6885V75.1064C181.441 75.3434 181.446 75.6305 181.455 75.9678C181.469 76.223 181.507 76.3962 181.571 76.4873C181.635 76.5785 181.731 76.6536 181.858 76.7129V77H179.739C179.68 76.8496 179.639 76.7083 179.616 76.5762C179.593 76.444 179.575 76.2936 179.562 76.125C179.293 76.4167 178.983 76.665 178.632 76.8701C178.213 77.1117 177.739 77.2324 177.21 77.2324C176.535 77.2324 175.977 77.041 175.535 76.6582C175.098 76.2708 174.879 75.724 174.879 75.0176C174.879 74.1016 175.232 73.4385 175.938 73.0283C176.326 72.805 176.896 72.6455 177.647 72.5498L178.311 72.4678ZM177.531 66.7324C177.654 66.7324 177.775 66.7461 177.894 66.7734C178.012 66.8008 178.112 66.8304 178.194 66.8623L178.837 67.1016C179.028 67.1654 179.154 67.2064 179.213 67.2246C179.272 67.2428 179.338 67.252 179.411 67.252C179.63 67.252 179.783 67.195 179.869 67.0811C179.96 66.9626 180.026 66.8236 180.067 66.6641H180.977C180.895 67.1426 180.73 67.5436 180.484 67.8672C180.243 68.1908 179.887 68.3525 179.418 68.3525C179.277 68.3525 179.076 68.3184 178.816 68.25C178.666 68.2135 178.522 68.1725 178.386 68.127L177.832 67.9424C177.755 67.915 177.679 67.8968 177.606 67.8877C177.534 67.874 177.461 67.8672 177.388 67.8672C177.215 67.8672 177.073 67.9173 176.964 68.0176C176.854 68.1224 176.777 68.266 176.731 68.4482H175.843C175.943 67.9788 176.073 67.6234 176.232 67.3818C176.524 66.9489 176.957 66.7324 177.531 66.7324ZM186.521 75.626C187.09 75.626 187.528 75.4232 187.833 75.0176C188.138 74.612 188.291 74.0355 188.291 73.2881C188.291 72.5407 188.138 71.9665 187.833 71.5654C187.528 71.1598 187.09 70.957 186.521 70.957C185.951 70.957 185.511 71.1598 185.201 71.5654C184.896 71.9665 184.743 72.5407 184.743 73.2881C184.743 74.0355 184.896 74.612 185.201 75.0176C185.511 75.4232 185.951 75.626 186.521 75.626ZM190.335 73.2881C190.335 74.3818 190.021 75.3184 189.392 76.0977C188.763 76.8724 187.808 77.2598 186.527 77.2598C185.247 77.2598 184.292 76.8724 183.663 76.0977C183.034 75.3184 182.72 74.3818 182.72 73.2881C182.72 72.2126 183.034 71.2806 183.663 70.4922C184.292 69.7038 185.247 69.3096 186.527 69.3096C187.808 69.3096 188.763 69.7038 189.392 70.4922C190.021 71.2806 190.335 72.2126 190.335 73.2881ZM200.377 66.8623H202.284V68.6396H200.377V66.8623ZM200.377 69.583H202.318V77H200.377V69.583ZM198.429 66.8213C198.547 66.8213 198.668 66.8258 198.791 66.835C198.914 66.8441 199.042 66.8532 199.174 66.8623V68.4482C199.083 68.4437 198.994 68.4414 198.907 68.4414C198.821 68.4368 198.716 68.4346 198.593 68.4346C198.287 68.4346 198.101 68.5189 198.032 68.6875C197.964 68.8561 197.934 69.1204 197.943 69.4805V69.6172H199.222V70.9912H197.943V77H196.002V70.9912H194.915V69.6172H195.981V69.1387C195.981 68.3457 196.157 67.7555 196.508 67.3682C196.822 67.0036 197.463 66.8213 198.429 66.8213ZM208.32 69.3711C209.09 69.3711 209.719 69.5739 210.207 69.9795C210.699 70.3805 210.945 71.0482 210.945 71.9824V77H208.949V72.4678C208.949 72.0758 208.897 71.7751 208.792 71.5654C208.601 71.1826 208.236 70.9912 207.698 70.9912C207.037 70.9912 206.584 71.2715 206.338 71.832C206.21 72.1283 206.146 72.5065 206.146 72.9668V77H204.205V69.5625H206.085V70.6494C206.336 70.2666 206.573 69.9909 206.796 69.8223C207.197 69.5215 207.705 69.3711 208.32 69.3711ZM216.858 73.377C216.735 73.4544 216.61 73.5182 216.482 73.5684C216.359 73.6139 216.188 73.6572 215.97 73.6982L215.532 73.7803C215.122 73.8532 214.828 73.9421 214.65 74.0469C214.35 74.2246 214.199 74.5003 214.199 74.874C214.199 75.2067 214.29 75.4482 214.473 75.5986C214.66 75.7445 214.885 75.8174 215.149 75.8174C215.569 75.8174 215.954 75.6943 216.305 75.4482C216.66 75.2021 216.845 74.7533 216.858 74.1016V73.377ZM215.676 72.4678C216.036 72.4222 216.293 72.3652 216.448 72.2969C216.726 72.1784 216.865 71.9938 216.865 71.7432C216.865 71.4378 216.758 71.2282 216.544 71.1143C216.334 70.9958 216.024 70.9365 215.614 70.9365C215.154 70.9365 214.828 71.0505 214.637 71.2783C214.5 71.4469 214.409 71.6748 214.363 71.9619H212.483C212.524 71.3102 212.707 70.7747 213.03 70.3555C213.545 69.6992 214.429 69.3711 215.683 69.3711C216.498 69.3711 217.223 69.5329 217.856 69.8564C218.49 70.18 218.807 70.7907 218.807 71.6885V75.1064C218.807 75.3434 218.811 75.6305 218.82 75.9678C218.834 76.223 218.873 76.3962 218.937 76.4873C219 76.5785 219.096 76.6536 219.224 76.7129V77H217.104C217.045 76.8496 217.004 76.7083 216.981 76.5762C216.959 76.444 216.94 76.2936 216.927 76.125C216.658 76.4167 216.348 76.665 215.997 76.8701C215.578 77.1117 215.104 77.2324 214.575 77.2324C213.901 77.2324 213.342 77.041 212.9 76.6582C212.463 76.2708 212.244 75.724 212.244 75.0176C212.244 74.1016 212.597 73.4385 213.304 73.0283C213.691 72.805 214.261 72.6455 215.013 72.5498L215.676 72.4678ZM224.672 69.3711C225.442 69.3711 226.071 69.5739 226.559 69.9795C227.051 70.3805 227.297 71.0482 227.297 71.9824V77H225.301V72.4678C225.301 72.0758 225.248 71.7751 225.144 71.5654C224.952 71.1826 224.588 70.9912 224.05 70.9912C223.389 70.9912 222.936 71.2715 222.689 71.832C222.562 72.1283 222.498 72.5065 222.498 72.9668V77H220.557V69.5625H222.437V70.6494C222.687 70.2666 222.924 69.9909 223.147 69.8223C223.549 69.5215 224.057 69.3711 224.672 69.3711ZM233.552 72.2217C233.515 71.9437 233.422 71.693 233.271 71.4697C233.053 71.1689 232.713 71.0186 232.253 71.0186C231.597 71.0186 231.148 71.3444 230.906 71.9961C230.779 72.3424 230.715 72.8027 230.715 73.377C230.715 73.9238 230.779 74.3636 230.906 74.6963C231.139 75.3161 231.576 75.626 232.219 75.626C232.674 75.626 232.998 75.5029 233.189 75.2568C233.381 75.0107 233.497 74.6917 233.538 74.2998H235.527C235.482 74.8923 235.268 75.4528 234.885 75.9814C234.274 76.8337 233.369 77.2598 232.171 77.2598C230.972 77.2598 230.09 76.9043 229.525 76.1934C228.96 75.4824 228.678 74.5596 228.678 73.4248C228.678 72.1442 228.99 71.1484 229.614 70.4375C230.239 69.7266 231.1 69.3711 232.198 69.3711C233.132 69.3711 233.896 69.5807 234.488 70C235.085 70.4193 235.438 71.1598 235.548 72.2217H233.552ZM239.834 70.957C239.383 70.957 239.032 71.0983 238.781 71.3809C238.535 71.6634 238.38 72.0462 238.316 72.5293H241.345C241.313 72.0143 241.156 71.6247 240.873 71.3604C240.595 71.0915 240.249 70.957 239.834 70.957ZM239.834 69.3506C240.454 69.3506 241.012 69.4668 241.509 69.6992C242.006 69.9316 242.416 70.2985 242.739 70.7998C243.031 71.2419 243.22 71.7546 243.307 72.3379C243.357 72.6797 243.377 73.1719 243.368 73.8145H238.269C238.296 74.5618 238.531 75.0859 238.973 75.3867C239.242 75.5736 239.565 75.667 239.943 75.667C240.344 75.667 240.67 75.5531 240.921 75.3252C241.058 75.2021 241.178 75.0312 241.283 74.8125H243.272C243.222 75.2546 242.992 75.7035 242.582 76.1592C241.944 76.8838 241.051 77.2461 239.902 77.2461C238.954 77.2461 238.118 76.9408 237.394 76.3301C236.669 75.7194 236.307 74.7259 236.307 73.3496C236.307 72.0599 236.632 71.071 237.284 70.3828C237.94 69.6947 238.79 69.3506 239.834 69.3506ZM246.69 68.6602H244.715V66.8623H246.69V68.6602ZM244.715 69.5488H246.69V77H244.715V69.5488ZM252.631 69.3711C252.667 69.3711 252.697 69.3734 252.72 69.3779C252.747 69.3779 252.804 69.3802 252.891 69.3848V71.3809C252.768 71.3672 252.658 71.3581 252.562 71.3535C252.467 71.349 252.389 71.3467 252.33 71.3467C251.546 71.3467 251.02 71.6019 250.751 72.1123C250.601 72.3994 250.525 72.8415 250.525 73.4385V77H248.563V69.5488H250.423V70.8477C250.724 70.3509 250.986 70.0114 251.209 69.8291C251.574 69.5238 252.048 69.3711 252.631 69.3711ZM258.147 73.377C258.024 73.4544 257.899 73.5182 257.771 73.5684C257.648 73.6139 257.478 73.6572 257.259 73.6982L256.821 73.7803C256.411 73.8532 256.117 73.9421 255.939 74.0469C255.639 74.2246 255.488 74.5003 255.488 74.874C255.488 75.2067 255.579 75.4482 255.762 75.5986C255.949 75.7445 256.174 75.8174 256.438 75.8174C256.858 75.8174 257.243 75.6943 257.594 75.4482C257.949 75.2021 258.134 74.7533 258.147 74.1016V73.377ZM256.965 72.4678C257.325 72.4222 257.582 72.3652 257.737 72.2969C258.015 72.1784 258.154 71.9938 258.154 71.7432C258.154 71.4378 258.047 71.2282 257.833 71.1143C257.623 70.9958 257.313 70.9365 256.903 70.9365C256.443 70.9365 256.117 71.0505 255.926 71.2783C255.789 71.4469 255.698 71.6748 255.652 71.9619H253.772C253.813 71.3102 253.996 70.7747 254.319 70.3555C254.834 69.6992 255.718 69.3711 256.972 69.3711C257.787 69.3711 258.512 69.5329 259.146 69.8564C259.779 70.18 260.096 70.7907 260.096 71.6885V75.1064C260.096 75.3434 260.1 75.6305 260.109 75.9678C260.123 76.223 260.162 76.3962 260.226 76.4873C260.289 76.5785 260.385 76.6536 260.513 76.7129V77H258.394C258.334 76.8496 258.293 76.7083 258.271 76.5762C258.248 76.444 258.229 76.2936 258.216 76.125C257.947 76.4167 257.637 76.665 257.286 76.8701C256.867 77.1117 256.393 77.2324 255.864 77.2324C255.19 77.2324 254.632 77.041 254.189 76.6582C253.752 76.2708 253.533 75.724 253.533 75.0176C253.533 74.1016 253.886 73.4385 254.593 73.0283C254.98 72.805 255.55 72.6455 256.302 72.5498L256.965 72.4678Z" fill="white"/>
<defs>
<linearGradient id="paint0_linear_10_160" x1="151" y1="0" x2="151" y2="56" gradientUnits="userSpaceOnUse">
<stop stop-color="#3300FF"/>
<stop offset="1" stop-color="#CBC2F2"/>
</linearGradient>
</defs>
</svg>
