<svg width="20" height="18" viewBox="0 0 20 18" fill="none" xmlns="http://www.w3.org/2000/svg">
<path d="M15.4444 8.1H4.55556C3.69645 8.1 3 8.83262 3 9.73636V15.4636C3 16.3674 3.69645 17.1 4.55556 17.1H15.4444C16.3036 17.1 17 16.3674 17 15.4636V9.73636C17 8.83262 16.3036 8.1 15.4444 8.1Z" stroke="#666360" stroke-width="1.5" stroke-linecap="round" stroke-linejoin="round"/>
<path d="M6 8.1V4.9C6 3.83914 6.42143 2.82172 7.17157 2.07157C7.92172 1.32143 8.93913 0.900002 10 0.900002C11.0609 0.900002 12.0783 1.32143 12.8284 2.07157C13.5786 2.82172 14 3.83914 14 4.9V8.1" stroke="#666360" stroke-width="1.5" stroke-linecap="round" stroke-linejoin="round"/>
</svg>
